<svg width="28" height="28" viewBox="0 0 28 28" fill="none" xmlns="http://www.w3.org/2000/svg">
<path d="M21.98 13.0144V12.0169C21.978 11.0727 21.602 10.1677 20.9344 9.50001C20.2667 8.83235 19.3617 8.45637 18.4175 8.45439H14.5625V6.72939C14.5667 6.69703 14.5667 6.66425 14.5625 6.63189C14.9207 6.50459 15.2224 6.25482 15.4144 5.92668C15.6063 5.59854 15.6761 5.21314 15.6116 4.83852C15.547 4.46389 15.3521 4.12413 15.0613 3.87922C14.7706 3.63431 14.4027 3.5 14.0225 3.5C13.6423 3.5 13.2744 3.63431 12.9837 3.87922C12.6929 4.12413 12.498 4.46389 12.4334 4.83852C12.3689 5.21314 12.4387 5.59854 12.6306 5.92668C12.8226 6.25482 13.1243 6.50459 13.4825 6.63189C13.4783 6.66425 13.4783 6.69703 13.4825 6.72939V8.45439H9.5825C8.63827 8.45637 7.73329 8.83235 7.06562 9.50001C6.39795 10.1677 6.02198 11.0727 6.02 12.0169V13.0144C5.3173 13.1448 4.68175 13.5153 4.22206 14.0625C3.76238 14.6098 3.50713 15.2997 3.5 16.0144V16.8844C3.5057 17.5994 3.76043 18.2902 4.22036 18.8377C4.68029 19.3852 5.31666 19.7554 6.02 19.8844V20.8819C6.01304 21.3541 6.10005 21.823 6.27596 22.2613C6.45187 22.6996 6.71318 23.0986 7.04469 23.435C7.37619 23.7714 7.77127 24.0385 8.20695 24.2208C8.64263 24.4031 9.11022 24.4969 9.5825 24.4969H18.4175C19.3623 24.4969 20.2685 24.1216 20.9366 23.4535C21.6047 22.7854 21.98 21.8792 21.98 20.9344V19.9369C22.6833 19.8079 23.3197 19.4377 23.7796 18.8902C24.2396 18.3427 24.4943 17.6519 24.5 16.9369V16.0444C24.4998 15.3246 24.2477 14.6275 23.7875 14.0741C23.3272 13.5206 22.6877 13.1457 21.98 13.0144ZM6.02 18.7819C5.61799 18.6613 5.2654 18.4147 5.01422 18.0784C4.76305 17.7422 4.6266 17.3341 4.625 16.9144V16.0444C4.6254 15.6244 4.76139 15.2157 5.01274 14.8793C5.26409 14.5428 5.61737 14.2964 6.02 14.1769V18.7819ZM13.4375 23.3719H11.3975V20.3719H13.4375V23.3719ZM16.6025 23.3719H14.5625V20.3719H16.6025V23.3719ZM20.855 20.9344C20.853 21.5802 20.5956 22.1991 20.1389 22.6558C19.6822 23.1125 19.0634 23.3699 18.4175 23.3719H17.75V19.8169C17.7481 19.6683 17.6882 19.5264 17.5831 19.4213C17.478 19.3162 17.3361 19.2563 17.1875 19.2544H10.835C10.6864 19.2563 10.5445 19.3162 10.4394 19.4213C10.3343 19.5264 10.2744 19.6683 10.2725 19.8169V23.3719H9.5825C8.93664 23.3699 8.3178 23.1125 7.86111 22.6558C7.40442 22.1991 7.14698 21.5802 7.145 20.9344V12.0169C7.14698 11.371 7.40442 10.7522 7.86111 10.2955C8.3178 9.83881 8.93664 9.58137 9.5825 9.57939H18.4175C19.0634 9.58137 19.6822 9.83881 20.1389 10.2955C20.5956 10.7522 20.853 11.371 20.855 12.0169V20.9344ZM23.375 16.9144C23.3734 17.3341 23.237 17.7422 22.9858 18.0784C22.7346 18.4147 22.382 18.6613 21.98 18.7819V14.1769C22.3826 14.2964 22.7359 14.5428 22.9873 14.8793C23.2386 15.2157 23.3746 15.6244 23.375 16.0444V16.9144Z" fill="white"/>
<path d="M11.12 12.1669C10.675 12.1669 10.24 12.2989 9.86997 12.5461C9.49996 12.7933 9.21157 13.1447 9.04127 13.5559C8.87097 13.967 8.82642 14.4194 8.91323 14.8558C9.00005 15.2923 9.21434 15.6932 9.52901 16.0079C9.84368 16.3226 10.2446 16.5368 10.681 16.6237C11.1175 16.7105 11.5699 16.6659 11.981 16.4956C12.3922 16.3253 12.7436 16.0369 12.9908 15.6669C13.238 15.2969 13.37 14.8619 13.37 14.4169C13.37 13.8202 13.1329 13.2479 12.711 12.8259C12.289 12.4039 11.7167 12.1669 11.12 12.1669ZM11.12 15.5419C10.8975 15.5419 10.68 15.4759 10.495 15.3523C10.31 15.2287 10.1658 15.053 10.0806 14.8474C9.99549 14.6418 9.97321 14.4156 10.0166 14.1974C10.06 13.9792 10.1672 13.7787 10.3245 13.6214C10.4818 13.4641 10.6823 13.3569 10.9005 13.3135C11.1188 13.2701 11.345 13.2924 11.5505 13.3775C11.7561 13.4627 11.9318 13.6069 12.0554 13.7919C12.179 13.9769 12.245 14.1944 12.245 14.4169C12.245 14.7153 12.1265 15.0014 11.9155 15.2124C11.7045 15.4234 11.4184 15.5419 11.12 15.5419Z" fill="white"/>
<path d="M16.88 12.1669C16.435 12.1669 16 12.2989 15.63 12.5461C15.26 12.7933 14.9716 13.1447 14.8013 13.5559C14.631 13.967 14.5864 14.4194 14.6732 14.8558C14.76 15.2923 14.9743 15.6932 15.289 16.0079C15.6037 16.3226 16.0046 16.5368 16.441 16.6237C16.8775 16.7105 17.3299 16.6659 17.741 16.4956C18.1522 16.3253 18.5036 16.0369 18.7508 15.6669C18.998 15.2969 19.13 14.8619 19.13 14.4169C19.13 13.8202 18.8929 13.2479 18.471 12.8259C18.049 12.4039 17.4767 12.1669 16.88 12.1669ZM16.88 15.5419C16.6575 15.5419 16.44 15.4759 16.255 15.3523C16.07 15.2287 15.9258 15.053 15.8406 14.8474C15.7555 14.6418 15.7332 14.4156 15.7766 14.1974C15.82 13.9792 15.9272 13.7787 16.0845 13.6214C16.2418 13.4641 16.4423 13.3569 16.6605 13.3135C16.8788 13.2701 17.105 13.2924 17.3105 13.3775C17.5161 13.4627 17.6918 13.6069 17.8154 13.7919C17.939 13.9769 18.005 14.1944 18.005 14.4169C18.005 14.7153 17.8865 15.0014 17.6755 15.2124C17.4645 15.4234 17.1784 15.5419 16.88 15.5419Z" fill="white"/>
</svg>
