<?xml version="1.0" encoding="UTF-8" standalone="no"?>

<svg width="32" height="32" viewBox="0 0 32 36" fill="none" xmlns="http://www.w3.org/2000/svg">
<circle cx="14" cy="18" r="14" fill="none"/>
<path d="M21.98 17.0144V16.0169C21.978 15.0727 21.602 14.1677 20.9344 13.5C20.2667 12.8323 19.3617 12.4564 18.4175 12.4544H14.5625V10.7294C14.5667 10.697 14.5667 10.6643 14.5625 10.6319C14.9207 10.5046 15.2224 10.2548 15.4144 9.92668C15.6063 9.59854 15.6761 9.21314 15.6116 8.83852C15.547 8.46389 15.3521 8.12413 15.0613 7.87922C14.7706 7.63431 14.4027 7.5 14.0225 7.5C13.6423 7.5 13.2744 7.63431 12.9837 7.87922C12.6929 8.12413 12.498 8.46389 12.4334 8.83852C12.3689 9.21314 12.4387 9.59854 12.6306 9.92668C12.8226 10.2548 13.1243 10.5046 13.4825 10.6319C13.4783 10.6643 13.4783 10.697 13.4825 10.7294V12.4544H9.5825C8.63828 12.4564 7.73329 12.8323 7.06562 13.5C6.39795 14.1677 6.02198 15.0727 6.02 16.0169V17.0144C5.3173 17.1448 4.68175 17.5153 4.22206 18.0625C3.76238 18.6098 3.50713 19.2997 3.5 20.0144V20.8844C3.5057 21.5994 3.76043 22.2902 4.22036 22.8377C4.68029 23.3852 5.31666 23.7554 6.02 23.8844V24.8819C6.01304 25.3541 6.10005 25.823 6.27596 26.2613C6.45187 26.6996 6.71318 27.0986 7.04469 27.435C7.37619 27.7714 7.77127 28.0385 8.20695 28.2208C8.64263 28.4031 9.11022 28.4969 9.5825 28.4969H18.4175C19.3623 28.4969 20.2685 28.1216 20.9366 27.4535C21.6047 26.7854 21.98 25.8792 21.98 24.9344V23.9369C22.6833 23.8079 23.3197 23.4377 23.7796 22.8902C24.2396 22.3427 24.4943 21.6519 24.5 20.9369V20.0444C24.4998 19.3246 24.2477 18.6275 23.7875 18.0741C23.3272 17.5206 22.6877 17.1457 21.98 17.0144ZM6.02 22.7819C5.61799 22.6613 5.2654 22.4147 5.01422 22.0784C4.76305 21.7422 4.6266 21.3341 4.625 20.9144V20.0444C4.6254 19.6244 4.76139 19.2157 5.01274 18.8793C5.26409 18.5428 5.61737 18.2964 6.02 18.1769V22.7819ZM13.4375 27.3719H11.3975V24.3719H13.4375V27.3719ZM16.6025 27.3719H14.5625V24.3719H16.6025V27.3719ZM20.855 24.9344C20.853 25.5802 20.5956 26.1991 20.1389 26.6558C19.6822 27.1125 19.0634 27.3699 18.4175 27.3719H17.75V23.8169C17.7481 23.6683 17.6882 23.5264 17.5831 23.4213C17.478 23.3162 17.3361 23.2563 17.1875 23.2544H10.835C10.6864 23.2563 10.5445 23.3162 10.4394 23.4213C10.3343 23.5264 10.2744 23.6683 10.2725 23.8169V27.3719H9.5825C8.93664 27.3699 8.3178 27.1125 7.86111 26.6558C7.40442 26.1991 7.14698 25.5802 7.145 24.9344V16.0169C7.14698 15.371 7.40442 14.7522 7.86111 14.2955C8.3178 13.8388 8.93664 13.5814 9.5825 13.5794H18.4175C19.0634 13.5814 19.6822 13.8388 20.1389 14.2955C20.5956 14.7522 20.853 15.371 20.855 16.0169V24.9344ZM23.375 20.9144C23.3734 21.3341 23.237 21.7422 22.9858 22.0784C22.7346 22.4147 22.382 22.6613 21.98 22.7819V18.1769C22.3826 18.2964 22.7359 18.5428 22.9873 18.8793C23.2386 19.2157 23.3746 19.6244 23.375 20.0444V20.9144Z" fill="white"/>
<path d="M11.12 16.1669C10.675 16.1669 10.24 16.2989 9.86997 16.5461C9.49996 16.7933 9.21157 17.1447 9.04127 17.5559C8.87097 17.967 8.82642 18.4194 8.91323 18.8558C9.00005 19.2923 9.21434 19.6932 9.52901 20.0079C9.84368 20.3226 10.2446 20.5368 10.681 20.6237C11.1175 20.7105 11.5699 20.6659 11.981 20.4956C12.3922 20.3253 12.7436 20.0369 12.9908 19.6669C13.238 19.2969 13.37 18.8619 13.37 18.4169C13.37 17.8202 13.1329 17.2479 12.711 16.8259C12.289 16.4039 11.7167 16.1669 11.12 16.1669ZM11.12 19.5419C10.8975 19.5419 10.68 19.4759 10.495 19.3523C10.31 19.2287 10.1658 19.053 10.0806 18.8474C9.99549 18.6418 9.97321 18.4156 10.0166 18.1974C10.06 17.9792 10.1672 17.7787 10.3245 17.6214C10.4818 17.4641 10.6823 17.3569 10.9005 17.3135C11.1188 17.2701 11.345 17.2924 11.5505 17.3775C11.7561 17.4627 11.9318 17.6069 12.0554 17.7919C12.179 17.9769 12.245 18.1944 12.245 18.4169C12.245 18.7153 12.1265 19.0014 11.9155 19.2124C11.7045 19.4234 11.4184 19.5419 11.12 19.5419Z" fill="white"/>
<path d="M16.88 16.1669C16.435 16.1669 16 16.2989 15.63 16.5461C15.26 16.7933 14.9716 17.1447 14.8013 17.5559C14.631 17.967 14.5864 18.4194 14.6732 18.8558C14.76 19.2923 14.9743 19.6932 15.289 20.0079C15.6037 20.3226 16.0046 20.5368 16.441 20.6237C16.8775 20.7105 17.3299 20.6659 17.741 20.4956C18.1522 20.3253 18.5036 20.0369 18.7508 19.6669C18.998 19.2969 19.13 18.8619 19.13 18.4169C19.13 17.8202 18.8929 17.2479 18.471 16.8259C18.049 16.4039 17.4767 16.1669 16.88 16.1669ZM16.88 19.5419C16.6575 19.5419 16.44 19.4759 16.255 19.3523C16.07 19.2287 15.9258 19.053 15.8406 18.8474C15.7555 18.6418 15.7332 18.4156 15.7766 18.1974C15.82 17.9792 15.9272 17.7787 16.0845 17.6214C16.2418 17.4641 16.4423 17.3569 16.6605 17.3135C16.8788 17.2701 17.105 17.2924 17.3105 17.3775C17.5161 17.4627 17.6918 17.6069 17.8154 17.7919C17.939 17.9769 18.005 18.1944 18.005 18.4169C18.005 18.7153 17.8865 19.0014 17.6755 19.2124C17.4645 19.4234 17.1784 19.5419 16.88 19.5419Z" fill="white"/>
</svg>
