<svg width="22" height="22" viewBox="0 0 22 22" fill="none" xmlns="http://www.w3.org/2000/svg">
<path d="M18.98 10.0144V9.01689C18.978 8.07267 18.602 7.16768 17.9344 6.50001C17.2667 5.83235 16.3617 5.45638 15.4175 5.45439H11.5625V3.72939C11.5667 3.69703 11.5667 3.66425 11.5625 3.63189C11.9207 3.50459 12.2224 3.25482 12.4144 2.92668C12.6063 2.59854 12.6761 2.21314 12.6116 1.83852C12.547 1.46389 12.3521 1.12413 12.0613 0.879221C11.7706 0.634311 11.4027 0.5 11.0225 0.5C10.6423 0.5 10.2744 0.634311 9.98366 0.879221C9.69291 1.12413 9.49804 1.46389 9.43345 1.83852C9.36885 2.21314 9.4387 2.59854 9.63064 2.92668C9.82259 3.25482 10.1243 3.50459 10.4825 3.63189C10.4783 3.66425 10.4783 3.69703 10.4825 3.72939V5.45439H6.5825C5.63828 5.45638 4.73329 5.83235 4.06562 6.50001C3.39795 7.16768 3.02198 8.07267 3.02 9.01689V10.0144C2.3173 10.1448 1.68175 10.5153 1.22206 11.0625C0.762377 11.6098 0.507134 12.2997 0.5 13.0144V13.8844C0.505702 14.5994 0.76043 15.2902 1.22036 15.8377C1.68029 16.3852 2.31666 16.7554 3.02 16.8844V17.8819C3.01304 18.3541 3.10005 18.823 3.27596 19.2613C3.45187 19.6996 3.71318 20.0986 4.04469 20.435C4.37619 20.7714 4.77127 21.0385 5.20695 21.2208C5.64263 21.4031 6.11022 21.4969 6.5825 21.4969H15.4175C16.3623 21.4969 17.2685 21.1216 17.9366 20.4535C18.6047 19.7854 18.98 18.8792 18.98 17.9344V16.9369C19.6833 16.8079 20.3197 16.4377 20.7796 15.8902C21.2396 15.3427 21.4943 14.6519 21.5 13.9369V13.0444C21.4998 12.3246 21.2477 11.6275 20.7875 11.0741C20.3272 10.5206 19.6877 10.1457 18.98 10.0144ZM3.02 15.7819C2.61799 15.6613 2.2654 15.4147 2.01422 15.0784C1.76305 14.7422 1.6266 14.3341 1.625 13.9144V13.0444C1.6254 12.6244 1.76139 12.2157 2.01274 11.8793C2.26409 11.5428 2.61737 11.2964 3.02 11.1769V15.7819ZM10.4375 20.3719H8.3975V17.3719H10.4375V20.3719ZM13.6025 20.3719H11.5625V17.3719H13.6025V20.3719ZM17.855 17.9344C17.853 18.5802 17.5956 19.1991 17.1389 19.6558C16.6822 20.1125 16.0634 20.3699 15.4175 20.3719H14.75V16.8169C14.7481 16.6683 14.6882 16.5264 14.5831 16.4213C14.478 16.3162 14.3361 16.2563 14.1875 16.2544H7.835C7.68642 16.2563 7.54447 16.3162 7.4394 16.4213C7.33433 16.5264 7.27444 16.6683 7.2725 16.8169V20.3719H6.5825C5.93664 20.3699 5.3178 20.1125 4.86111 19.6558C4.40442 19.1991 4.14698 18.5802 4.145 17.9344V9.01689C4.14698 8.37104 4.40442 7.7522 4.86111 7.29551C5.3178 6.83881 5.93664 6.58137 6.5825 6.57939H15.4175C16.0634 6.58137 16.6822 6.83881 17.1389 7.29551C17.5956 7.7522 17.853 8.37104 17.855 9.01689V17.9344ZM20.375 13.9144C20.3734 14.3341 20.237 14.7422 19.9858 15.0784C19.7346 15.4147 19.382 15.6613 18.98 15.7819V11.1769C19.3826 11.2964 19.7359 11.5428 19.9873 11.8793C20.2386 12.2157 20.3746 12.6244 20.375 13.0444V13.9144Z" fill="white"/>
<path d="M8.12 9.16689C7.67499 9.16689 7.23998 9.29885 6.86997 9.54609C6.49996 9.79332 6.21157 10.1447 6.04127 10.5559C5.87097 10.967 5.82642 11.4194 5.91323 11.8558C6.00005 12.2923 6.21434 12.6932 6.52901 13.0079C6.84368 13.3226 7.24459 13.5368 7.68105 13.6237C8.1175 13.7105 8.5699 13.6659 8.98104 13.4956C9.39217 13.3253 9.74357 13.0369 9.99081 12.6669C10.238 12.2969 10.37 11.8619 10.37 11.4169C10.37 10.8202 10.1329 10.2479 9.71099 9.8259C9.28903 9.40395 8.71674 9.16689 8.12 9.16689ZM8.12 12.5419C7.8975 12.5419 7.67999 12.4759 7.49498 12.3523C7.30998 12.2287 7.16578 12.053 7.08064 11.8474C6.99549 11.6418 6.97321 11.4156 7.01662 11.1974C7.06002 10.9792 7.16717 10.7787 7.3245 10.6214C7.48184 10.4641 7.68229 10.3569 7.90052 10.3135C8.11875 10.2701 8.34495 10.2924 8.55052 10.3775C8.75609 10.4627 8.93179 10.6069 9.0554 10.7919C9.17902 10.9769 9.245 11.1944 9.245 11.4169C9.245 11.7153 9.12647 12.0014 8.91549 12.2124C8.70452 12.4234 8.41837 12.5419 8.12 12.5419Z" fill="white"/>
<path d="M13.88 9.16689C13.435 9.16689 13 9.29885 12.63 9.54609C12.26 9.79332 11.9716 10.1447 11.8013 10.5559C11.631 10.967 11.5864 11.4194 11.6732 11.8558C11.76 12.2923 11.9743 12.6932 12.289 13.0079C12.6037 13.3226 13.0046 13.5368 13.441 13.6237C13.8775 13.7105 14.3299 13.6659 14.741 13.4956C15.1522 13.3253 15.5036 13.0369 15.7508 12.6669C15.998 12.2969 16.13 11.8619 16.13 11.4169C16.13 10.8202 15.8929 10.2479 15.471 9.8259C15.049 9.40395 14.4767 9.16689 13.88 9.16689ZM13.88 12.5419C13.6575 12.5419 13.44 12.4759 13.255 12.3523C13.07 12.2287 12.9258 12.053 12.8406 11.8474C12.7555 11.6418 12.7332 11.4156 12.7766 11.1974C12.82 10.9792 12.9272 10.7787 13.0845 10.6214C13.2418 10.4641 13.4423 10.3569 13.6605 10.3135C13.8788 10.2701 14.105 10.2924 14.3105 10.3775C14.5161 10.4627 14.6918 10.6069 14.8154 10.7919C14.939 10.9769 15.005 11.1944 15.005 11.4169C15.005 11.7153 14.8865 12.0014 14.6755 12.2124C14.4645 12.4234 14.1784 12.5419 13.88 12.5419Z" fill="white"/>
</svg>
