<?xml version="1.0" encoding="UTF-8" standalone="no"?>

<svg width="14" height="14" viewBox="0 0 14 14" fill="none" xmlns="http://www.w3.org/2000/svg">
    <path d="M7 14C3.15 14 0 10.85 0 7C0 3.15 3.15 0 7 0C10.85 0 14 3.15 14 7C14 10.85 10.85 14 7 14ZM7 0.75C3.55 0.75 0.75 3.55 0.75 7C0.75 10.45 3.55 13.25 7 13.25C10.45 13.25 13.25 10.45 13.25 7C13.25 3.55 10.45 0.75 7 0.75Z" fill="#D93D32"/>
    <path d="M7 3.65C7.35 3.65 7.65 3.95 7.65 4.3C7.65 4.65 7.35 4.95 7 4.95" fill="#D93D32"/>
    <path d="M7 4.95C6.65 4.95 6.35 4.65 6.35 4.3C6.35 3.95 6.65 3.65 7 3.65" fill="#D93D32"/>
    <path d="M7 10.7C6.8 10.7 6.6 10.55 6.6 10.3V6.4C6.6 6.2 6.75 6 7 6C7.25 6 7.4 6.15 7.4 6.4V10.3C7.4 10.55 7.2 10.7 7 10.7Z" fill="#D93D32"/>
</svg>

