<svg width="32" height="32" viewBox="0 0 32 32" fill="none" xmlns="http://www.w3.org/2000/svg">
<path d="M16 2C13.2311 2 10.5243 2.82109 8.22202 4.35943C5.91973 5.89777 4.12532 8.08427 3.06569 10.6424C2.00607 13.2006 1.72882 16.0155 2.26901 18.7313C2.80921 21.447 4.14258 23.9416 6.10051 25.8995C8.05845 27.8574 10.553 29.1908 13.2687 29.731C15.9845 30.2712 18.7994 29.9939 21.3576 28.9343C23.9157 27.8747 26.1022 26.0803 27.6406 23.778C29.1789 21.4757 30 18.7689 30 16C30 12.287 28.525 8.72601 25.8995 6.1005C23.274 3.475 19.713 2 16 2ZM16 28.5C13.5277 28.5 11.111 27.7669 9.05538 26.3934C6.99976 25.0199 5.39761 23.0676 4.45151 20.7835C3.50542 18.4995 3.25787 15.9861 3.74019 13.5614C4.22251 11.1366 5.41302 8.90932 7.16117 7.16117C8.90933 5.41301 11.1366 4.2225 13.5614 3.74018C15.9861 3.25787 18.4995 3.50541 20.7835 4.45151C23.0676 5.3976 25.0199 6.99976 26.3934 9.05537C27.7669 11.111 28.5 13.5277 28.5 16C28.4947 19.3136 27.1761 22.4899 24.833 24.833C22.4899 27.1761 19.3136 28.4947 16 28.5Z" fill="#231F20"/>
<path d="M18.5 22H16.75V14C16.75 13.8011 16.671 13.6103 16.5303 13.4697C16.3897 13.329 16.1989 13.25 16 13.25H14.69C14.4911 13.25 14.3003 13.329 14.1597 13.4697C14.019 13.6103 13.94 13.8011 13.94 14C13.94 14.1989 14.019 14.3897 14.1597 14.5303C14.3003 14.671 14.4911 14.75 14.69 14.75H15.25V22H13.5C13.3011 22 13.1103 22.079 12.9697 22.2197C12.829 22.3603 12.75 22.5511 12.75 22.75C12.75 22.9489 12.829 23.1397 12.9697 23.2803C13.1103 23.421 13.3011 23.5 13.5 23.5H18.5C18.6989 23.5 18.8897 23.421 19.0303 23.2803C19.171 23.1397 19.25 22.9489 19.25 22.75C19.25 22.5511 19.171 22.3603 19.0303 22.2197C18.8897 22.079 18.6989 22 18.5 22Z" fill="#231F20"/>
<path d="M16 10.92C16.2591 10.92 16.5124 10.8432 16.7278 10.6992C16.9432 10.5553 17.1111 10.3507 17.2103 10.1113C17.3094 9.87194 17.3354 9.60855 17.2848 9.35443C17.2343 9.10032 17.1095 8.8669 16.9263 8.68369C16.7431 8.50048 16.5097 8.37572 16.2556 8.32517C16.0015 8.27462 15.7381 8.30057 15.4987 8.39972C15.2593 8.49887 15.0547 8.66677 14.9108 8.8822C14.7668 9.09763 14.69 9.35091 14.69 9.61C14.69 9.95743 14.828 10.2906 15.0737 10.5363C15.3194 10.782 15.6526 10.92 16 10.92Z" fill="#231F20"/>
</svg>
