<svg width="32" height="32" viewBox="0 0 32 32" fill="none" xmlns="http://www.w3.org/2000/svg">
<path fill-rule="evenodd" clip-rule="evenodd" d="M20.3656 2.75269C20.3656 2.33699 20.7026 2 21.1183 2H29.2473C29.663 2 30 2.33699 30 2.75269V10.8817C30 11.2974 29.663 11.6344 29.2473 11.6344C28.8316 11.6344 28.4946 11.2974 28.4946 10.8817V3.50538H21.1183C20.7026 3.50538 20.3656 3.16839 20.3656 2.75269Z" fill="black"/>
<path fill-rule="evenodd" clip-rule="evenodd" d="M29.7795 2.22046C30.0735 2.5144 30.0735 2.99098 29.7795 3.28492L18.6398 14.4247C18.3458 14.7186 17.8692 14.7186 17.5753 14.4247C17.2814 14.1308 17.2814 13.6542 17.5753 13.3602L28.7151 2.22046C29.009 1.92651 29.4856 1.92651 29.7795 2.22046Z" fill="black"/>
<path fill-rule="evenodd" clip-rule="evenodd" d="M2.75269 20.3656C3.16839 20.3656 3.50538 20.7026 3.50538 21.1183V28.4946H10.8817C11.2974 28.4946 11.6344 28.8316 11.6344 29.2473C11.6344 29.663 11.2974 30 10.8817 30H2.75269C2.33699 30 2 29.663 2 29.2473V21.1183C2 20.7026 2.33699 20.3656 2.75269 20.3656Z" fill="black"/>
<path fill-rule="evenodd" clip-rule="evenodd" d="M14.4247 17.5753C14.7186 17.8692 14.7186 18.3458 14.4247 18.6398L3.28492 29.7795C2.99098 30.0735 2.5144 30.0735 2.22046 29.7795C1.92651 29.4856 1.92651 29.009 2.22046 28.7151L13.3602 17.5753C13.6542 17.2814 14.1308 17.2814 14.4247 17.5753Z" fill="black"/>
</svg>
