<svg width="32" height="32" viewBox="0 0 32 32" fill="#1473E6" xmlns="http://www.w3.org/2000/svg">
<path d="M7.6 16.9C4.5 16.9 2 19.4 2 22.5C2 22.6 2 23.2 2 23.3C2 23.7 2.4 24 2.7 24C3.1 24 3.4 23.6 3.4 23.2V22.5C3.4 20.2 5.2 18.4 7.5 18.4C8.1 18.4 8.7 18.5 9.2 18.8C9.5 18.4 9.8 17.9 10.1 17.6C9.4 17.1 8.5 16.9 7.6 16.9Z" fill="#1473E6"/>
<path d="M7.6 15.8C9.5 15.8 11 14.3 11 12.4C11 10.5 9.5 9 7.6 9C5.7 9 4.2 10.5 4.2 12.4C4.2 14.3 5.7 15.8 7.6 15.8ZM7.6 10.5C8.7 10.5 9.5 11.3 9.5 12.4C9.5 13.5 8.7 14.3 7.6 14.3C6.6 14.3 5.7 13.4 5.7 12.4C5.7 11.3 6.6 10.5 7.6 10.5Z" fill="#1473E6"/>
<path d="M24.4 16.9C23.5 16.9 22.6 17.1 21.8 17.5C22.1 17.9 22.4 18.3 22.7 18.7C23.2 18.5 23.8 18.3 24.4 18.3C26.7 18.3 28.5 20.1 28.5 22.4V23.1C28.5 23.5 28.8 23.9 29.2 23.9C29.6 23.9 29.9 23.6 30 23.2V22.4C30 19.4 27.5 16.9 24.4 16.9Z" fill="#1473E6"/>
<path d="M24.4 15.8C26.3 15.8 27.8 14.3 27.8 12.4C27.8 10.5 26.3 9 24.4 9C22.5 9 21 10.5 21 12.4C21 14.3 22.5 15.8 24.4 15.8ZM24.4 10.5C25.4 10.5 26.3 11.3 26.3 12.4C26.3 13.5 25.4 14.3 24.4 14.3C23.3 14.3 22.5 13.4 22.5 12.4C22.5 11.3 23.4 10.5 24.4 10.5Z" fill="#1473E6"/>
<path d="M16 16.2C12.4 16.2 9.5 19.1 9.5 22.7V25C9.5 25.4 9.8 25.8 10.3 25.8C10.8 25.8 11 25.4 11 25V22.6C11 19.9 13.2 17.6 16 17.6C18.8 17.6 21 19.8 21 22.6V25C21 25.4 21.3 25.8 21.8 25.8C22.3 25.8 22.6 25.5 22.6 25V22.6C22.5 19.1 19.6 16.2 16 16.2Z" fill="#1473E6"/>
<path d="M16 14.8C18.1 14.8 19.9 13.1 19.9 10.9C19.9 8.7 18.1 7 16 7C13.9 7 12.1 8.7 12.1 10.9C12.1 13 13.9 14.8 16 14.8ZM16 8.5C17.3 8.5 18.4 9.6 18.4 10.9C18.4 12.2 17.3 13.3 16 13.3C14.7 13.3 13.6 12.2 13.6 10.9C13.6 9.6 14.7 8.5 16 8.5Z" fill="#1473E6"/>
</svg>
