<svg width="32" height="32" viewBox="0 0 32 32" fill="none" xmlns="http://www.w3.org/2000/svg">
<path d="M16 2C8.3 2 2 8.3 2 16C2 23.7 8.3 30 16 30C23.7 30 30 23.7 30 16C30 8.3 23.7 2 16 2ZM16 28.5C9.1 28.5 3.5 22.9 3.5 16C3.5 9.1 9.1 3.5 16 3.5C22.9 3.5 28.5 9.1 28.5 16C28.5 22.9 22.9 28.5 16 28.5Z" fill="black"/>
<path d="M16 22.7C16.718 22.7 17.3 22.118 17.3 21.4C17.3 20.682 16.718 20.1 16 20.1C15.282 20.1 14.7 20.682 14.7 21.4C14.7 22.118 15.282 22.7 16 22.7Z" fill="black"/>
<path d="M16 17.8C16.4 17.8 16.8 17.5 16.8 17V9.3C16.8 8.9 16.5 8.5 16 8.5C15.5 8.5 15.2 8.8 15.2 9.3V17.1C15.2 17.5 15.6 17.8 16 17.8Z" fill="black"/>
</svg>
