<svg width="28" height="28" viewBox="0 0 28 28" fill="none" xmlns="http://www.w3.org/2000/svg">
<path d="M14 0C6.3 0 9.53674e-07 6.3 9.53674e-07 14C9.53674e-07 21.7 6.3 28 14 28C21.7 28 28 21.7 28 14C28 6.3 21.7 0 14 0ZM14 26.5C7.1 26.5 1.5 20.9 1.5 14C1.5 7.1 7.1 1.5 14 1.5C20.9 1.5 26.5 7.1 26.5 14C26.5 20.9 20.9 26.5 14 26.5Z" fill="#A63B11"/>
<path d="M14 20.7C14.718 20.7 15.3 20.118 15.3 19.4C15.3 18.682 14.718 18.1 14 18.1C13.282 18.1 12.7 18.682 12.7 19.4C12.7 20.118 13.282 20.7 14 20.7Z" fill="#A63B11"/>
<path d="M14 15.8C14.4 15.8 14.8 15.5 14.8 15V7.3C14.8 6.9 14.5 6.5 14 6.5C13.5 6.5 13.2 6.8 13.2 7.3V15.1C13.2 15.5 13.6 15.8 14 15.8Z" fill="#A63B11"/>
</svg>
