<svg width="32" height="32" viewBox="0 0 32 32" fill="none" xmlns="http://www.w3.org/2000/svg">
<path d="M17.025 16.025L23.725 9.325C24.025 9.025 24.025 8.525 23.725 8.225C23.425 7.925 22.925 7.925 22.625 8.225L16.025 14.925L9.325 8.225C9.025 7.925 8.525 7.925 8.225 8.225C7.925 8.525 7.925 9.025 8.225 9.325L14.925 16.025L8.225 22.725C7.925 23.025 7.925 23.525 8.225 23.825C8.325 23.925 8.525 24.025 8.725 24.025C8.925 24.025 9.125 23.925 9.225 23.825L16.025 17.025L22.725 23.725C22.825 23.825 23.025 23.925 23.225 23.925C23.425 23.925 23.625 23.825 23.725 23.725C24.025 23.425 24.025 22.925 23.725 22.625L17.025 16.025Z" fill="black"/>
</svg>
