<svg width="32" height="32" viewBox="0 0 32 32" fill="none" xmlns="http://www.w3.org/2000/svg">
<path d="M15.9799 24.0846C16.7013 24.0846 17.2862 23.4998 17.2862 22.7783C17.2862 22.0569 16.7013 21.472 15.9799 21.472C15.2584 21.472 14.6736 22.0569 14.6736 22.7783C14.6736 23.4998 15.2584 24.0846 15.9799 24.0846Z" fill="#B84C4C"/>
<path d="M15.9799 19.2085C16.0785 19.2098 16.1763 19.1914 16.2677 19.1543C16.359 19.1171 16.442 19.0621 16.5117 18.9924C16.5814 18.9227 16.6365 18.8397 16.6736 18.7484C16.7107 18.657 16.7291 18.5592 16.7278 18.4606V10.7225C16.7278 10.5241 16.649 10.3339 16.5087 10.1937C16.3685 10.0534 16.1782 9.97462 15.9799 9.97462C15.7815 9.97462 15.5913 10.0534 15.4511 10.1937C15.3108 10.3339 15.232 10.5241 15.232 10.7225V18.4606C15.232 18.6589 15.3108 18.8491 15.4511 18.9894C15.5913 19.1297 15.7815 19.2085 15.9799 19.2085Z" fill="#B84C4C"/>
<path d="M29.5415 23.9151L18.5726 4.5799C18.3171 4.10252 17.9368 3.70343 17.4723 3.42519C17.0078 3.14695 16.4765 3 15.935 3C15.3936 3 14.8623 3.14695 14.3978 3.42519C13.9333 3.70343 13.553 4.10252 13.2975 4.5799L2.41833 23.9151C2.14816 24.3708 2.00383 24.89 2.00008 25.4197C1.99632 25.9494 2.13329 26.4706 2.39698 26.93C2.66066 27.3894 3.04161 27.7706 3.50088 28.0345C3.96015 28.2985 4.48128 28.4358 5.01098 28.4323H26.9488C27.4819 28.4429 28.0081 28.3109 28.473 28.0499C28.9379 27.7889 29.3246 27.4083 29.5931 26.9477C29.8616 26.487 30.002 25.963 30 25.4298C29.9979 24.8966 29.8534 24.3737 29.5814 23.9151H29.5415ZM28.2352 26.1787C28.1095 26.4127 27.9245 26.6096 27.6987 26.7496C27.4729 26.8896 27.2143 26.9679 26.9488 26.9764H5.01098C4.74262 26.9788 4.47843 26.9099 4.24541 26.7768C4.0124 26.6436 3.81892 26.451 3.68474 26.2186C3.55276 25.986 3.48337 25.7232 3.48337 25.4557C3.48337 25.1883 3.55276 24.9255 3.68474 24.6929L14.6537 5.3577C14.7876 5.12127 14.9818 4.92461 15.2166 4.78778C15.4513 4.65095 15.7182 4.57885 15.9899 4.57885C16.2616 4.57885 16.5284 4.65095 16.7632 4.78778C16.9979 4.92461 17.1922 5.12127 17.3261 5.3577L28.295 24.6929C28.4135 24.9248 28.4703 25.1834 28.4598 25.4436C28.4493 25.7039 28.372 25.9571 28.2352 26.1787Z" fill="#B84C4C"/>
</svg>
