<svg width="32" height="32" viewBox="0 0 32 32" fill="none" xmlns="http://www.w3.org/2000/svg">
<path d="M16 28.5C14.3578 28.5047 12.7308 28.1836 11.2135 27.5554C9.69608 26.9272 8.31836 26.0042 7.16004 24.84C7.09137 24.7663 7.00857 24.7072 6.91657 24.6662C6.82458 24.6252 6.72526 24.6032 6.62456 24.6014C6.52386 24.5996 6.42383 24.6182 6.33044 24.6559C6.23705 24.6936 6.15222 24.7497 6.081 24.821C6.00978 24.8922 5.95363 24.977 5.91591 25.0704C5.87819 25.1638 5.85967 25.2638 5.86144 25.3645C5.86322 25.4652 5.88526 25.5645 5.92626 25.6565C5.96725 25.7485 6.02635 25.8313 6.10004 25.9C8.05803 27.8578 10.5526 29.191 13.2683 29.7311C15.984 30.2712 18.7988 29.9939 21.3569 28.9342C23.915 27.8745 26.1014 26.0801 27.6397 23.7778C29.178 21.4756 29.999 18.7689 29.999 16C29.999 13.2311 29.178 10.5244 27.6397 8.22217C26.1014 5.91991 23.915 4.1255 21.3569 3.06583C18.7988 2.00616 15.984 1.72883 13.2683 2.26891C10.5526 2.80899 8.05803 4.14221 6.10004 6.10001C5.96756 6.24218 5.89543 6.43023 5.89886 6.62453C5.90229 6.81883 5.981 7.00421 6.11841 7.14163C6.25583 7.27904 6.44121 7.35775 6.63551 7.36118C6.82982 7.36461 7.01786 7.29249 7.16004 7.16001C8.61366 5.70676 10.4032 4.63441 12.3702 4.03792C14.3373 3.44143 16.421 3.33921 18.437 3.74032C20.4529 4.14143 22.3389 5.03348 23.9277 6.33747C25.5166 7.64147 26.7594 9.31716 27.5461 11.2161C28.3327 13.1151 28.6389 15.1788 28.4376 17.2244C28.2363 19.27 27.5336 21.2343 26.3918 22.9435C25.25 24.6527 23.7044 26.0539 21.8918 27.0232C20.0792 27.9924 18.0555 28.4996 16 28.5Z" fill="#125AB3"/>
</svg>
