<svg width="32" height="32" viewBox="0 0 32 32" fill="none" xmlns="http://www.w3.org/2000/svg">
<path d="M16 28.5C14.3577 28.5047 12.7308 28.1836 11.2134 27.5554C9.69602 26.9272 8.3183 26.0042 7.15998 24.84C7.09131 24.7663 7.00851 24.7072 6.91651 24.6662C6.82451 24.6252 6.7252 24.6032 6.6245 24.6014C6.5238 24.5996 6.42377 24.6182 6.33038 24.6559C6.23699 24.6936 6.15216 24.7497 6.08094 24.821C6.00972 24.8922 5.95357 24.977 5.91585 25.0704C5.87813 25.1638 5.85961 25.2638 5.86138 25.3645C5.86316 25.4652 5.8852 25.5645 5.92619 25.6565C5.96719 25.7485 6.02629 25.8313 6.09998 25.9C8.05797 27.8578 10.5525 29.191 13.2682 29.7311C15.9839 30.2712 18.7988 29.9939 21.3569 28.9342C23.9149 27.8745 26.1014 26.0801 27.6396 23.7778C29.1779 21.4756 29.999 18.7689 29.999 16C29.999 13.2311 29.1779 10.5244 27.6396 8.22217C26.1014 5.91991 23.9149 4.1255 21.3569 3.06583C18.7988 2.00616 15.9839 1.72883 13.2682 2.26891C10.5525 2.80899 8.05797 4.14221 6.09998 6.10001C5.9675 6.24218 5.89537 6.43023 5.8988 6.62453C5.90223 6.81883 5.98094 7.00421 6.11835 7.14163C6.25577 7.27904 6.44115 7.35775 6.63545 7.36118C6.82975 7.36461 7.0178 7.29249 7.15998 7.16001C8.6136 5.70676 10.4032 4.63441 12.3702 4.03792C14.3372 3.44143 16.421 3.33921 18.4369 3.74032C20.4529 4.14143 22.3388 5.03348 23.9277 6.33747C25.5166 7.64147 26.7594 9.31716 27.546 11.2161C28.3327 13.1151 28.6389 15.1788 28.4375 17.2244C28.2362 19.27 27.5335 21.2343 26.3918 22.9435C25.25 24.6527 23.7043 26.0539 21.8917 27.0232C20.0791 27.9924 18.0554 28.4996 16 28.5Z" fill="#5E5E5E"/>
</svg>
