<?xml version="1.0" encoding="UTF-8" standalone="no"?>

<svg width="28" height="26" viewBox="0 0 28 26" fill="none" xmlns="http://www.w3.org/2000/svg">
<path d="M6 25.4891V23.8591C6 21.7374 6.84285 19.7026 8.34315 18.2023C9.84344 16.702 11.8783 15.8591 14 15.8591C16.1217 15.8591 18.1566 16.702 19.6569 18.2023C21.1571 19.7026 22 21.7374 22 23.8591V25.4891C24.446 23.786 26.2846 21.3466 27.2482 18.5262C28.2118 15.7057 28.2501 12.6514 27.3575 9.80761C26.465 6.96387 24.6882 4.47918 22.2857 2.7152C19.8833 0.951215 16.9805 0 14 0C11.0195 0 8.11674 0.951215 5.71427 2.7152C3.3118 4.47918 1.535 6.96387 0.64246 9.80761C-0.250076 12.6514 -0.211755 15.7057 0.751846 18.5262C1.71545 21.3466 3.55403 23.786 6 25.4891V25.4891ZM14 4.63913C14.9078 4.63913 15.7952 4.90832 16.5501 5.41268C17.3049 5.91704 17.8932 6.6339 18.2406 7.47261C18.588 8.31132 18.6789 9.23422 18.5018 10.1246C18.3247 11.015 17.8875 11.8328 17.2456 12.4747C16.6037 13.1167 15.7858 13.5538 14.8955 13.7309C14.0051 13.908 13.0822 13.8171 12.2435 13.4697C11.4048 13.1223 10.6879 12.534 10.1836 11.7792C9.6792 11.0244 9.41 10.1369 9.41 9.22913C9.41264 8.01259 9.89708 6.84664 10.7573 5.98642C11.6175 5.1262 12.7835 4.64177 14 4.63913V4.63913Z" fill="#fff"/>
</svg>
