<svg width="32" height="32" viewBox="0 0 32 32" fill="none" xmlns="http://www.w3.org/2000/svg">
<path fill-rule="evenodd" clip-rule="evenodd" d="M27.5417 11.163C25.0688 5.13902 18.2633 2.07101 11.9634 4.17097L11.959 4.17244L11.959 4.17243C7.31185 5.68987 4.17646 9.77058 3.6065 14.3302C3.55473 14.7444 3.177 15.0382 2.76281 14.9865C2.34863 14.9347 2.05483 14.5569 2.10661 14.1428C2.74581 9.0291 6.26043 4.44405 11.4876 2.73625C18.2549 0.481686 25.5826 3.56188 28.6036 9.8334V5.06631C28.6036 4.64891 28.942 4.31053 29.3594 4.31053C29.7768 4.31053 30.1152 4.64891 30.1152 5.06631V11.9188C30.1152 12.3362 29.7768 12.6745 29.3594 12.6745H22.507C22.0896 12.6745 21.7512 12.3362 21.7512 11.9188C21.7512 11.5014 22.0896 11.163 22.507 11.163H27.5417ZM29.3524 16.9128C29.7666 16.9646 30.0604 17.3423 30.0086 17.7565C29.369 22.873 25.8538 27.4507 20.6385 29.2601L20.6298 29.2631L20.6298 29.263C13.8619 31.519 6.5329 28.4388 3.51157 22.1666V26.9337C3.51157 27.3511 3.17319 27.6895 2.75578 27.6895C2.33838 27.6895 2 27.3511 2 26.9337V20.0812C2 19.6638 2.33838 19.3255 2.75578 19.3255H9.60823C10.0256 19.3255 10.364 19.6638 10.364 20.0812C10.364 20.4986 10.0256 20.837 9.60823 20.837H4.57351C7.04582 26.8596 13.8487 29.9276 20.1474 27.8305C24.8053 26.2126 27.9392 22.1251 28.5087 17.569C28.5605 17.1548 28.9382 16.861 29.3524 16.9128Z" fill="black"/>
</svg>
