<svg width="32" height="32" viewBox="0 0 32 32" fill="none" xmlns="http://www.w3.org/2000/svg">
<path fill-rule="evenodd" clip-rule="evenodd" d="M29.7795 2.22046C30.0735 2.5144 30.0735 2.99098 29.7795 3.28492L19.9247 13.1398H26.2366C26.6523 13.1398 26.9892 13.4768 26.9892 13.8925C26.9892 14.3082 26.6523 14.6452 26.2366 14.6452H18.1075C17.6918 14.6452 17.3548 14.3082 17.3548 13.8925V5.76344C17.3548 5.34774 17.6918 5.01075 18.1075 5.01075C18.5232 5.01075 18.8602 5.34774 18.8602 5.76344V12.0753L28.7151 2.22046C29.009 1.92651 29.4856 1.92651 29.7795 2.22046ZM5.76344 18.8602C5.34774 18.8602 5.01075 18.5232 5.01075 18.1075C5.01075 17.6918 5.34774 17.3548 5.76344 17.3548H13.8925C14.3082 17.3548 14.6452 17.6918 14.6452 18.1075V26.2366C14.6452 26.6523 14.3082 26.9892 13.8925 26.9892C13.4768 26.9892 13.1398 26.6523 13.1398 26.2366V19.9247L3.28492 29.7795C2.99098 30.0735 2.5144 30.0735 2.22046 29.7795C1.92651 29.4856 1.92651 29.009 2.22046 28.7151L12.0753 18.8602H5.76344Z" fill="black"/>
</svg>
