<svg width="32" height="32" viewBox="0 0 32 32" fill="none" xmlns="http://www.w3.org/2000/svg">
<path fill-rule="evenodd" clip-rule="evenodd" d="M10.0844 20.7597C10.3379 20.4302 10.8104 20.3686 11.1399 20.622C12.2909 21.5074 14.0283 22.0717 15.8996 22.0717C17.771 22.0717 19.5083 21.5074 20.6594 20.622C20.9888 20.3686 21.4614 20.4302 21.7149 20.7597C21.9683 21.0892 21.9067 21.5618 21.5772 21.8152C20.1189 22.937 18.0426 23.5771 15.8996 23.5771C13.7566 23.5771 11.6804 22.937 10.2221 21.8152C9.89259 21.5618 9.83095 21.0892 10.0844 20.7597Z" fill="black"/>
<path fill-rule="evenodd" clip-rule="evenodd" d="M12.086 9.12545C12.5017 9.12545 12.8387 9.46244 12.8387 9.87814V13.9928C12.8387 14.4085 12.5017 14.7455 12.086 14.7455C11.6703 14.7455 11.3333 14.4085 11.3333 13.9928V9.87814C11.3333 9.46244 11.6703 9.12545 12.086 9.12545Z" fill="black"/>
<path fill-rule="evenodd" clip-rule="evenodd" d="M19.914 9.12545C20.3297 9.12545 20.6667 9.46244 20.6667 9.87814V13.9928C20.6667 14.4085 20.3297 14.7455 19.914 14.7455C19.4983 14.7455 19.1613 14.4085 19.1613 13.9928V9.87814C19.1613 9.46244 19.4983 9.12545 19.914 9.12545Z" fill="black"/>
<path fill-rule="evenodd" clip-rule="evenodd" d="M16 3.50538C9.09941 3.50538 3.50538 9.09941 3.50538 16C3.50538 22.9006 9.09941 28.4946 16 28.4946C22.9006 28.4946 28.4946 22.9006 28.4946 16C28.4946 9.09941 22.9006 3.50538 16 3.50538ZM2 16C2 8.26801 8.26801 2 16 2C23.732 2 30 8.26801 30 16C30 23.732 23.732 30 16 30C8.26801 30 2 23.732 2 16Z" fill="black"/>
</svg>
